<svg xmlns="http://www.w3.org/2000/svg" viewBox="0 0 100 125"><path d="M44.04 30.003h-9.56c-.276 0-.5-.224-.5-.5s.224-.5.5-.5h9.56c.275 0 .5.224.5.5s-.225.5-.5.5zM44.04 31.904h-9.56c-.276 0-.5-.224-.5-.5s.224-.5.5-.5h9.56c.275 0 .5.224.5.5s-.225.5-.5.5zM44.04 25.817h-9.56c-.276 0-.5-.224-.5-.5s.224-.5.5-.5h9.56c.275 0 .5.224.5.5s-.225.5-.5.5zM44.04 27.718h-9.56c-.276 0-.5-.224-.5-.5s.224-.5.5-.5h9.56c.275 0 .5.224.5.5s-.225.5-.5.5zM23.205 54.378h9.56c.275 0 .5-.224.5-.5s-.225-.5-.5-.5h-9.56c-.276 0-.5.224-.5.5s.224.5.5.5zM23.205 56.277h9.56c.275 0 .5-.224.5-.5s-.225-.5-.5-.5h-9.56c-.276 0-.5.224-.5.5s.224.5.5.5zM83.323 72.88H60.076V57.05h23.247v15.83zm-22.247-1h21.247V58.05H61.076v13.83z"/><path d="M68.782 61.15h-5.936c-.276 0-.5-.223-.5-.5s.224-.5.5-.5h5.936c.276 0 .5.225.5.5s-.223.5-.5.5zM68.782 62.972h-5.936c-.276 0-.5-.224-.5-.5s.224-.5.5-.5h5.936c.276 0 .5.224.5.5s-.223.5-.5.5zM80.962 67.23h-9.56c-.276 0-.5-.223-.5-.5s.224-.5.5-.5h9.56c.276 0 .5.225.5.5s-.224.5-.5.5zM80.962 69.05h-9.56c-.276 0-.5-.223-.5-.5s.224-.5.5-.5h9.56c.276 0 .5.225.5.5s-.224.5-.5.5zM80.962 70.87h-9.56c-.276 0-.5-.224-.5-.5s.224-.5.5-.5h9.56c.276 0 .5.224.5.5s-.224.5-.5.5z"/><path d="M60.576 68.745H20.922V51.117h44.17v6.43h1v-7.43h-46.17v19.628h40.654"/><path d="M30.984 21.25h36.02v7.11h7.112V57.55h1v-29.65l-7.648-7.648H29.984v20.307h1"/><path d="M25.064 40.057v10.56h1v-9.56h.057l21.934 9.045.095.04 22.027-9.084h.057v16.49h1V40.06h-46.17zM48.15 49.6L27.43 41.06h41.434L48.15 49.6z"/><g><path d="M74.116 72.38v6.712H30.984v-9.847h-1v10.847h45.132V72.38"/></g></svg>
